<?xml version="1.0" encoding="utf-8"?>
<!-- Generator: Adobe Illustrator 26.5.0, SVG Export Plug-In . SVG Version: 6.00 Build 0)  -->
<svg version="1.1" id="Layer_1" xmlns="http://www.w3.org/2000/svg" xmlns:xlink="http://www.w3.org/1999/xlink" x="0px" y="0px"
	 viewBox="0 0 351.1 120.1" style="enable-background:new 0 0 351.1 120.1;" xml:space="preserve">
<style type="text/css">
	.st0{fill:#1D1D1B;}
	.st1{fill:#4EAE33;}
</style>
<g>
	<path class="st0" d="M77.8,63.1c0,13-0.2,45.3,1,52.2h-6.9c1.2-6.9,1-39.2,1-52.2V6.9L7.6,115.3H0c1.1-6.9,2.6-39.2,2.6-52.2V52.5
		c0-13,0.2-45.3-1-52.2h6.9c-1.2,6.9-1,39.2-1,52.2v56.2L72.9,0.3h7.6c-1.2,6.9-2.6,39.2-2.6,52.2L77.8,63.1L77.8,63.1z"/>
	<path class="st0" d="M136,70H90.8v-3.6H136V70z"/>
	<path class="st0" d="M200.5,6.9c-6.2-1-36-3.8-48.6-3.3c0.8,14.8,2,40.6,2,48.9v9.4c10.3-0.7,37.6-0.5,43.4-1.5V67
		c-5.8-1-33-0.8-43.4-1.5c0.2,8.9-1,36.3-2,46.5c12-0.3,42.4-2.3,48.6-3.3v6.6h-54.2c1.1-6.9,2.6-39.2,2.6-52.2V52.6
		c0-13-1.5-45.3-2.6-52.2h54.2L200.5,6.9L200.5,6.9z"/>
	<path class="st0" d="M282.8,115.3h-5.1c-3-8.1-11.8-32.7-14.6-40.9l-3.1-9H222l-1.3,4.6c-4.8,14.6-11.8,38.3-14.4,45.3H203L224,48
		c5.9-19.2,13.3-42.5,13.8-47.6h5.1c0.8,6.7,11,33,14.1,41.7L282.8,115.3L282.8,115.3z M223.3,62.1h35.5L239.6,6.4L223.3,62.1
		L223.3,62.1z"/>
	<path class="st0" d="M351.1,6.9c-5.4-1-22.3-2.8-32.8-3.1c-0.7,12.5-1.3,40.4-1.3,48.8v10.5c0,13-0.2,45.3,1,52.2H311
		c1.1-6.9,1-39.2,1-52.2V52.6c0-8.4-0.7-36.3-1.3-48.8c-10.5,0.3-29.1,2.1-34.5,3.1V0.3h74.9L351.1,6.9L351.1,6.9z"/>
</g>
<path class="st1" d="M129.7,30c-3.9-8.1-10.2-13.8-14.7-17.7c-0.4-0.4-1.9-1.6-3.9-3.5c-1.5-1.3-2.6-2.4-3.8-3.6
	c-1.4-1.3-3.2-3.1-5.3-5.3c-9.8,14.6-10.7,31.8-2.5,43c4.7,6.4,11.2,9.3,15.3,10.7c4.6,1.3,9.2,2.6,13.8,3.9
	C135.6,44.1,131.4,33.6,129.7,30L129.7,30z"/>
<path class="st1" d="M127.2,95.8c-1.5,6-4.9,10.8-7.4,14.1c-0.2,0.3-1.1,1.4-2.2,2.9c-0.8,1.1-1.4,2-2,3c-0.7,1.1-1.7,2.6-2.9,4.3
	c-8.8-8.4-11.9-20-7.9-28.7c2.2-5,6.2-7.9,8.8-9.4c2.9-1.5,5.8-3.1,8.8-4.6C129.2,85.4,127.8,93.1,127.2,95.8L127.2,95.8z"/>
</svg>
